# xmcd
#
# Track frame offsets:
#	150
#	14706
#	31713
#	53892
#	67161
#	77790
#	102915
#
# Disc length: 1584 seconds
#
# Revision: 1
# Processed by: cddbd v1.4PL0 Copyright (c) Steve Scherf et al.
# Submitted via: audiograbber 1.81.01
#
DISCID=58062e07
DTITLE=The Detonators - The Detonators
DYEAR=2001
DGENRE=Blues
TTITLE0=Rain, Rain
TTITLE1=Nine Kindsa Ugly
TTITLE2=Watch Yourself
TTITLE3=Bugs
TTITLE4=Waggin'
TTITLE5=It's Hot In Here
TTITLE6=Kicking Back
EXTD=www.detonatorblues.com
EXTT0=
EXTT1=
EXTT2=
EXTT3=
EXTT4=
EXTT5=
EXTT6=
PLAYORDER=
